<svg width="160" height="160" viewBox="0 0 160 160" fill="none" xmlns="http://www.w3.org/2000/svg">
<rect x="0.5" y="0.5" width="159" height="159" rx="79.5" fill="url(#paint0_linear_1_401)"/>
<rect x="0.5" y="0.5" width="159" height="159" rx="79.5" stroke="white"/>
<rect x="15" y="15" width="130" height="130" rx="65" fill="white"/>
<path d="M86 92.9999V107H89L107 89V86H92.9999C89.7002 86 88.0502 86 87.0251 87.0251C86 88.0502 86 89.7002 86 92.9999Z" stroke="url(#paint1_linear_1_401)" stroke-width="4.5"/>
<path d="M86.5148 107H65C59.3431 107 56.5147 107 54.7574 105.243C53 103.485 53 100.657 53 95V65C53 59.3431 53 56.5147 54.7574 54.7574C56.5147 53 59.3431 53 65 53H95C100.657 53 103.485 53 105.243 54.7574C107 56.5147 107 59.3431 107 65V86.5148C107 87.7409 107 88.3541 106.772 88.9055C106.543 89.4566 106.11 89.8904 105.243 90.7574L90.7574 105.243C89.8904 106.11 89.4566 106.543 88.9055 106.772C88.3541 107 87.7409 107 86.5148 107Z" stroke="url(#paint2_linear_1_401)" stroke-width="4.5"/>
<path d="M86 107V92.9999C86 89.7002 86 88.0502 87.0251 87.0251C88.0502 86 89.7002 86 92.9999 86H107" stroke="url(#paint3_linear_1_401)" stroke-width="4.5"/>
<defs>
<linearGradient id="paint0_linear_1_401" x1="80" y1="0" x2="80" y2="160" gradientUnits="userSpaceOnUse">
<stop stop-color="#F9F9F9"/>
<stop offset="1" stop-color="#E6E6E6"/>
</linearGradient>
<linearGradient id="paint1_linear_1_401" x1="60.8322" y1="108.554" x2="110.123" y2="109.448" gradientUnits="userSpaceOnUse">
<stop offset="0.185" stop-color="#FF7557"/>
<stop offset="0.539613" stop-color="#DE35FF"/>
<stop offset="0.704599" stop-color="#173EFF"/>
<stop offset="1" stop-color="#16F1FF"/>
</linearGradient>
<linearGradient id="paint2_linear_1_401" x1="60.8322" y1="108.554" x2="110.123" y2="109.448" gradientUnits="userSpaceOnUse">
<stop offset="0.185" stop-color="#FF7557"/>
<stop offset="0.539613" stop-color="#DE35FF"/>
<stop offset="0.704599" stop-color="#173EFF"/>
<stop offset="1" stop-color="#16F1FF"/>
</linearGradient>
<linearGradient id="paint3_linear_1_401" x1="60.8322" y1="108.554" x2="110.123" y2="109.448" gradientUnits="userSpaceOnUse">
<stop offset="0.185" stop-color="#FF7557"/>
<stop offset="0.539613" stop-color="#DE35FF"/>
<stop offset="0.704599" stop-color="#173EFF"/>
<stop offset="1" stop-color="#16F1FF"/>
</linearGradient>
</defs>
</svg>
