<svg width="160" height="160" viewBox="0 0 160 160" fill="none" xmlns="http://www.w3.org/2000/svg">
<rect x="0.5" y="0.5" width="159" height="159" rx="79.5" fill="url(#paint0_linear_1_408)"/>
<rect x="0.5" y="0.5" width="159" height="159" rx="79.5" stroke="white"/>
<rect x="15" y="15" width="130" height="130" rx="65" fill="white"/>
<path d="M94.8977 65.1025C94.8977 65.1025 93.2212 73.8 83.5099 83.5114C73.7985 93.2225 65.1025 94.8977 65.1025 94.8977M55.1708 84.9659C46.9431 76.7382 46.9431 63.3985 55.1708 55.1708C63.3985 46.9431 76.7382 46.9431 84.9659 55.1708L104.829 75.0341C113.057 83.2619 113.057 96.6015 104.829 104.829C96.6015 113.057 83.2619 113.057 75.0341 104.829L55.1708 84.9659Z" stroke="#1C274C" stroke-width="4.5"/>
<path d="M94.8977 65.1025C94.8977 65.1025 93.2212 73.8 83.5099 83.5114C73.7985 93.2225 65.1025 94.8977 65.1025 94.8977M55.1708 84.9659C46.9431 76.7382 46.9431 63.3985 55.1708 55.1708C63.3985 46.9431 76.7382 46.9431 84.9659 55.1708L104.829 75.0341C113.057 83.2619 113.057 96.6015 104.829 104.829C96.6015 113.057 83.2619 113.057 75.0341 104.829L55.1708 84.9659Z" stroke="url(#paint1_linear_1_408)" stroke-width="4.5"/>
<defs>
<linearGradient id="paint0_linear_1_408" x1="80" y1="0" x2="80" y2="160" gradientUnits="userSpaceOnUse">
<stop stop-color="#F9F9F9"/>
<stop offset="1" stop-color="#E6E6E6"/>
</linearGradient>
<linearGradient id="paint1_linear_1_408" x1="57.9925" y1="112.784" x2="114.586" y2="113.81" gradientUnits="userSpaceOnUse">
<stop offset="0.185" stop-color="#FF7557"/>
<stop offset="0.539613" stop-color="#DE35FF"/>
<stop offset="0.704599" stop-color="#173EFF"/>
<stop offset="1" stop-color="#16F1FF"/>
</linearGradient>
</defs>
</svg>
