<svg width="161" height="160" viewBox="0 0 161 160" fill="none" xmlns="http://www.w3.org/2000/svg">
<rect x="1" y="0.5" width="159" height="159" rx="79.5" fill="url(#paint0_linear_1_415)"/>
<rect x="1" y="0.5" width="159" height="159" rx="79.5" stroke="white"/>
<rect x="15.5" y="15" width="130" height="130" rx="65" fill="white"/>
<path d="M108.108 63.125C108.614 63.7275 109.094 64.3531 109.545 65C112.51 69.2519 114.25 74.4228 114.25 80C114.25 85.5772 112.51 90.7481 109.545 95C109.094 95.6469 108.614 96.2725 108.108 96.875M74.875 66.875C80.0527 66.875 84.25 69.8131 84.25 73.4375M74.875 66.875C69.6973 66.875 65.5 69.8131 65.5 73.4375C65.5 77.0619 69.6973 80 74.875 80M74.875 66.875V62.1875M74.875 66.875V80M74.875 80C80.0527 80 84.25 82.9381 84.25 86.5625C84.25 90.1869 80.0527 93.125 74.875 93.125M74.875 80V93.125M74.875 93.125C69.6973 93.125 65.5 90.1869 65.5 86.5625M74.875 93.125V97.8125M103 80C103 95.533 90.408 108.125 74.875 108.125C59.342 108.125 46.75 95.533 46.75 80C46.75 64.467 59.342 51.875 74.875 51.875C90.408 51.875 103 64.467 103 80Z" stroke="url(#paint1_linear_1_415)" stroke-width="4.5" stroke-linecap="round"/>
<defs>
<linearGradient id="paint0_linear_1_415" x1="80.5" y1="0" x2="80.5" y2="160" gradientUnits="userSpaceOnUse">
<stop stop-color="#F9F9F9"/>
<stop offset="1" stop-color="#E6E6E6"/>
</linearGradient>
<linearGradient id="paint1_linear_1_415" x1="56.5402" y1="109.743" x2="118.145" y2="111.084" gradientUnits="userSpaceOnUse">
<stop offset="0.185" stop-color="#FF7557"/>
<stop offset="0.539613" stop-color="#DE35FF"/>
<stop offset="0.704599" stop-color="#173EFF"/>
<stop offset="1" stop-color="#16F1FF"/>
</linearGradient>
</defs>
</svg>
