<svg width="161" height="160" viewBox="0 0 161 160" fill="none" xmlns="http://www.w3.org/2000/svg">
<rect x="1" y="0.5" width="159" height="159" rx="79.5" fill="url(#paint0_linear_1_422)"/>
<rect x="1" y="0.5" width="159" height="159" rx="79.5" stroke="white"/>
<rect x="15.5" y="15" width="130" height="130" rx="65" fill="white"/>
<path d="M110.663 47H50.337C46.2914 47 43 50.2898 43 54.3335V93.4456C43 97.4893 46.2914 100.779 50.337 100.779H72.0281L78.3821 111.779C79.3228 113.408 81.679 113.405 82.618 111.779L88.9719 100.779H110.663C114.709 100.779 118 97.4893 118 93.4456V54.3335C118 50.2898 114.709 47 110.663 47ZM113.109 93.4458C113.109 94.7937 112.012 95.8903 110.663 95.8903H87.5601C86.6863 95.8903 85.8788 96.3562 85.4422 97.1126L80.5001 105.668L75.5581 97.1125C75.1213 96.3561 74.3139 95.8902 73.4402 95.8902H50.337C48.9884 95.8902 47.8913 94.7935 47.8913 93.4456V54.3335C47.8913 52.9856 48.9884 51.889 50.337 51.889H110.663C112.012 51.889 113.109 52.9856 113.109 54.3335V93.4458Z" fill="url(#paint1_linear_1_422)"/>
<path d="M95.8391 63.4059L88.8859 66.3493C87.1531 67.083 86.867 69.4202 88.3663 70.5514L89.25 71.2181L83.6939 78.2002L75.8589 68.3542C74.8803 67.1246 73.0091 67.1247 72.0308 68.3542L62.2818 80.6054C61.441 81.6619 61.6163 83.1999 62.6735 84.0403C63.7309 84.881 65.2693 84.705 66.11 83.6488L73.945 73.8028L81.7801 83.6488C82.7586 84.8784 84.6298 84.8782 85.6081 83.6488L93.1556 74.1644L94.4035 75.1059C95.8949 76.2312 98.0718 75.3332 98.3041 73.4547L99.2318 65.9516C99.4641 64.072 97.5629 62.6684 95.8391 63.4059Z" fill="url(#paint2_linear_1_422)"/>
<defs>
<linearGradient id="paint0_linear_1_422" x1="80.5" y1="0" x2="80.5" y2="160" gradientUnits="userSpaceOnUse">
<stop stop-color="#F9F9F9"/>
<stop offset="1" stop-color="#E6E6E6"/>
</linearGradient>
<linearGradient id="paint1_linear_1_422" x1="53.8781" y1="114.899" x2="122.331" y2="116.31" gradientUnits="userSpaceOnUse">
<stop offset="0.185" stop-color="#FF7557"/>
<stop offset="0.539613" stop-color="#DE35FF"/>
<stop offset="0.704599" stop-color="#173EFF"/>
<stop offset="1" stop-color="#16F1FF"/>
</linearGradient>
<linearGradient id="paint2_linear_1_422" x1="53.8781" y1="114.899" x2="122.331" y2="116.31" gradientUnits="userSpaceOnUse">
<stop offset="0.185" stop-color="#FF7557"/>
<stop offset="0.539613" stop-color="#DE35FF"/>
<stop offset="0.704599" stop-color="#173EFF"/>
<stop offset="1" stop-color="#16F1FF"/>
</linearGradient>
</defs>
</svg>
