<svg width="160" height="160" viewBox="0 0 160 160" fill="none" xmlns="http://www.w3.org/2000/svg">
<rect x="0.5" y="0.5" width="159" height="159" rx="79.5" fill="url(#paint0_linear_1_437)"/>
<rect x="0.5" y="0.5" width="159" height="159" rx="79.5" stroke="white"/>
<rect x="15" y="15" width="130" height="130" rx="65" fill="white"/>
<path fill-rule="evenodd" clip-rule="evenodd" d="M80 73.9774L49.886 61.9318L80 49.8862L110.114 61.9318L80 73.9774Z" fill="url(#paint1_linear_1_437)" stroke="url(#paint2_linear_1_437)" stroke-width="6.453" stroke-linecap="round" stroke-linejoin="round"/>
<path d="M52.2825 97.8684L76.6906 107.632L76.8046 107.917L77.6833 110.114L77.6034 110.314L51.4836 99.8659L52.2825 97.8684ZM82.3964 110.314L82.3165 110.114L83.1952 107.917L83.3092 107.632L107.717 97.8684L108.516 99.8658L82.3964 110.314ZM51.4836 81.7975L52.2825 79.8L76.6906 89.5633L76.8046 89.8483L77.6833 92.0455L77.6034 92.2453L51.4836 81.7975ZM83.1952 89.8483L83.3092 89.5633L107.717 79.8001L108.516 81.7974L82.3964 92.2453L82.3165 92.0455L83.1952 89.8483Z" fill="url(#paint3_linear_1_437)" stroke="url(#paint4_linear_1_437)" stroke-width="4.302"/>
<defs>
<linearGradient id="paint0_linear_1_437" x1="80" y1="0" x2="80" y2="160" gradientUnits="userSpaceOnUse">
<stop stop-color="#F9F9F9"/>
<stop offset="1" stop-color="#E6E6E6"/>
</linearGradient>
<linearGradient id="paint1_linear_1_437" x1="58.6215" y1="74.6706" x2="113.503" y2="77.1587" gradientUnits="userSpaceOnUse">
<stop offset="0.185" stop-color="#FF7557"/>
<stop offset="0.539613" stop-color="#DE35FF"/>
<stop offset="0.704599" stop-color="#173EFF"/>
<stop offset="1" stop-color="#16F1FF"/>
</linearGradient>
<linearGradient id="paint2_linear_1_437" x1="58.6215" y1="74.6706" x2="113.503" y2="77.1587" gradientUnits="userSpaceOnUse">
<stop offset="0.185" stop-color="#FF7557"/>
<stop offset="0.539613" stop-color="#DE35FF"/>
<stop offset="0.704599" stop-color="#173EFF"/>
<stop offset="1" stop-color="#16F1FF"/>
</linearGradient>
<linearGradient id="paint3_linear_1_437" x1="56.3303" y1="114.393" x2="117.152" y2="116.404" gradientUnits="userSpaceOnUse">
<stop offset="0.185" stop-color="#FF7557"/>
<stop offset="0.539613" stop-color="#DE35FF"/>
<stop offset="0.704599" stop-color="#173EFF"/>
<stop offset="1" stop-color="#16F1FF"/>
</linearGradient>
<linearGradient id="paint4_linear_1_437" x1="56.3303" y1="114.393" x2="117.152" y2="116.404" gradientUnits="userSpaceOnUse">
<stop offset="0.185" stop-color="#FF7557"/>
<stop offset="0.539613" stop-color="#DE35FF"/>
<stop offset="0.704599" stop-color="#173EFF"/>
<stop offset="1" stop-color="#16F1FF"/>
</linearGradient>
</defs>
</svg>
