<svg width="29" height="21" viewBox="0 0 29 21" fill="none" xmlns="http://www.w3.org/2000/svg">
<path d="M20.4602 7.5L24.3254 5.18088C25.5151 4.46705 26.11 4.11014 26.5994 4.15577C27.0262 4.19555 27.4156 4.416 27.6692 4.76149C27.9602 5.15772 27.9602 5.85143 27.9602 7.23885V13.7612C27.9602 15.1485 27.9602 15.8422 27.6692 16.2386C27.4156 16.584 27.0262 16.8045 26.5994 16.8443C26.11 16.8899 25.5151 16.533 24.3254 15.8192L20.4602 13.5M5.7602 19.5H15.6602C17.3404 19.5 18.1805 19.5 18.8222 19.173C19.3867 18.8855 19.8457 18.4265 20.1332 17.862C20.4602 17.2203 20.4602 16.3802 20.4602 14.7V6.3C20.4602 4.61985 20.4602 3.77976 20.1332 3.13803C19.8457 2.57354 19.3867 2.11459 18.8222 1.82698C18.1805 1.5 17.3404 1.5 15.6602 1.5H5.7602C4.08005 1.5 3.23997 1.5 2.59824 1.82698C2.03374 2.11459 1.5748 2.57354 1.28719 3.13803C0.960205 3.77976 0.960205 4.61983 0.960205 6.3V14.7C0.960205 16.3802 0.960205 17.2203 1.28719 17.862C1.5748 18.4265 2.03374 18.8855 2.59824 19.173C3.23997 19.5 4.08004 19.5 5.7602 19.5Z" stroke="white" stroke-width="1.5" stroke-linecap="round" stroke-linejoin="round"/>
</svg>
