<svg width="15" height="18" viewBox="0 0 15 18" fill="none" xmlns="http://www.w3.org/2000/svg">
<path fill-rule="evenodd" clip-rule="evenodd" d="M5.73868 4.38609e-07H9.26134C10.4336 -1.63056e-05 11.3784 -3.30049e-05 12.1215 0.0975521C12.8931 0.198871 13.5426 0.415616 14.0586 0.919549C14.5745 1.42348 14.7964 2.05798 14.9001 2.81156C15 3.53739 15 4.46027 15 5.60523V12.3948C15 13.5398 15 14.4626 14.9001 15.1885C14.7964 15.9421 14.5745 16.5765 14.0586 17.0805C13.5426 17.5844 12.8931 17.8012 12.1215 17.9025C11.3784 18 10.4336 18 9.26134 18H5.73868C4.56646 18 3.62162 18 2.8785 17.9025C2.10698 17.8012 1.45737 17.5844 0.941443 17.0805C0.425512 16.5765 0.203606 15.9421 0.0998747 15.1885C-3.38929e-05 14.4626 -1.66938e-05 13.5398 4.49104e-07 12.3948V5.60523C-1.66938e-05 4.46027 -3.38929e-05 3.53739 0.0998747 2.81156C0.203606 2.05798 0.425512 1.42348 0.941443 0.919549C1.45737 0.415616 2.10698 0.198871 2.8785 0.0975521C3.62162 -3.30049e-05 4.56646 -1.63056e-05 5.73868 4.38609e-07ZM2.57143 1.43185C2.23533 1.51941 2.01885 1.64319 1.85058 1.80754C1.61336 2.03925 1.45869 2.36457 1.37413 2.97889C1.28708 3.61128 1.28571 4.44942 1.28571 5.65116V12.2868C1.58763 12.0808 1.92791 11.924 2.29475 11.8279C2.38329 11.8047 2.47499 11.7866 2.57143 11.7723V1.43185ZM3.85714 1.27825V11.7209C3.86625 11.7209 3.87538 11.7209 3.88455 11.7209C3.91715 11.7209 3.95024 11.7209 3.98381 11.7209H13.7143V5.65116C13.7143 4.44942 13.7129 3.61128 13.6259 2.97889C13.5413 2.36457 13.3867 2.03925 13.1494 1.80754C12.9122 1.57584 12.5792 1.42476 11.9502 1.34217C11.3027 1.25715 10.4446 1.25581 9.21429 1.25581H5.78572C5.00759 1.25581 4.37835 1.25635 3.85714 1.27825ZM13.7136 12.9767H9V15.3049C9 15.3122 9 15.3197 9 15.3275C9.00017 15.4206 9.00034 15.5533 8.98209 15.6674C8.9598 15.8067 8.88652 16.0756 8.60134 16.2392C8.32672 16.3967 8.05817 16.3381 7.93046 16.2994C7.8192 16.2656 7.69714 16.2088 7.60612 16.1665C7.59892 16.1632 7.59189 16.1599 7.58512 16.1567L6.64286 15.7195L5.70058 16.1567C5.69379 16.1599 5.68678 16.1631 5.67958 16.1665C5.58858 16.2088 5.46654 16.2656 5.35524 16.2994C5.22758 16.3381 4.95899 16.3967 4.68438 16.2392C4.39924 16.0756 4.32589 15.8067 4.30359 15.6674C4.28536 15.5533 4.28555 15.4206 4.28569 15.3275C4.28571 15.3197 4.28571 15.3122 4.28571 15.3049V12.9767H3.98381C3.1453 12.9767 2.85216 12.9821 2.62752 13.041C2.01096 13.2023 1.51944 13.6499 1.30865 14.2318C1.32168 14.528 1.34211 14.7885 1.37413 15.0211C1.45869 15.6355 1.61336 15.9607 1.85058 16.1925C2.0878 16.4242 2.42087 16.5752 3.04982 16.6579C3.69726 16.7428 4.55536 16.7442 5.78572 16.7442H9.21429C10.4446 16.7442 11.3027 16.7428 11.9502 16.6579C12.5792 16.5752 12.9122 16.4242 13.1494 16.1925C13.3867 15.9607 13.5413 15.6355 13.6259 15.0211C13.6969 14.5052 13.7109 13.8523 13.7136 12.9767ZM5.57143 12.9767V14.8263L6.21369 14.5283C6.21523 14.5276 6.2178 14.5263 6.22123 14.5247C6.26323 14.5036 6.44032 14.4152 6.64286 14.4152C6.8454 14.4152 7.02249 14.5036 7.06449 14.5247C7.06792 14.5263 7.07049 14.5276 7.07203 14.5283L7.71429 14.8263V12.9767H5.57143Z" fill="#667085"/>
</svg>
