<svg width="18" height="23" viewBox="0 0 18 23" fill="none" xmlns="http://www.w3.org/2000/svg">
<path d="M1.81392 9.20579L5.06744 4.64846C7.17047 1.7026 8.22203 0.229678 9.20314 0.540934C10.1841 0.8522 10.1841 2.65874 10.1841 6.27183V6.6125C10.1841 7.91566 10.1841 8.56724 10.5864 8.97594L10.6077 8.99712C11.0185 9.39723 11.6736 9.39723 12.9836 9.39723C15.3412 9.39723 16.52 9.39723 16.9184 10.1374C16.925 10.1496 16.9313 10.1621 16.9376 10.1745C17.3137 10.9262 16.6312 11.8822 15.2661 13.7943L12.0126 18.3516C9.90949 21.2973 8.85793 22.7704 7.87682 22.4591C6.89582 22.1478 6.89582 20.3412 6.89582 16.7281L6.89592 16.3876C6.89592 15.0843 6.89592 14.4328 6.49366 14.024L6.47241 14.0029C6.06154 13.6029 5.4065 13.6029 4.0964 13.6029C1.73885 13.6029 0.560082 13.6029 0.161698 12.8626C0.1551 12.8504 0.148682 12.838 0.142456 12.8255C-0.233616 12.0739 0.448891 11.1179 1.81392 9.20579Z" fill="white"/>
</svg>
