<svg width="25" height="21" viewBox="0 0 25 21" fill="none" xmlns="http://www.w3.org/2000/svg">
<path d="M22.9619 13.8726L23.0056 14.6214L23.0066 14.6213L22.9619 13.8726ZM24.1167 12.8236L24.8648 12.8776L24.8648 12.8774L24.1167 12.8236ZM24.1167 8.17642L24.8648 8.12257L24.8648 8.12237L24.1167 8.17642ZM22.9619 7.12741L23.0065 6.37873L23.0064 6.37873L22.9619 7.12741ZM21.622 2.81802L21.0976 3.35413L21.0976 3.35415L21.622 2.81802ZM2.46669 2.81802L1.94222 2.28189L1.94222 2.28189L2.46669 2.81802ZM2.46669 18.1819L2.99117 17.6458L2.99114 17.6458L2.46669 18.1819ZM21.622 18.1819L21.0976 17.6458L21.0976 17.6458L21.622 18.1819ZM19.5093 9.75C19.0951 9.75 18.7593 10.0858 18.7593 10.5C18.7593 10.9142 19.0951 11.25 19.5093 11.25V9.75ZM19.5196 11.25C19.9338 11.25 20.2696 10.9142 20.2696 10.5C20.2696 10.0858 19.9338 9.75 19.5196 9.75V11.25ZM22.7777 6.375H19.7848V7.875H22.7777V6.375ZM19.7848 6.375C17.3881 6.375 15.3194 8.15557 15.3194 10.5H16.8194C16.8194 9.1164 18.0776 7.875 19.7848 7.875V6.375ZM15.3194 10.5C15.3194 12.8444 17.3881 14.625 19.7848 14.625V13.125C18.0776 13.125 16.8194 11.8836 16.8194 10.5H15.3194ZM19.7848 14.625H22.7777V13.125H19.7848V14.625ZM22.7777 14.625C22.863 14.625 22.9378 14.6253 23.0056 14.6214L22.9182 13.1239C22.9051 13.1247 22.8842 13.125 22.7777 13.125V14.625ZM23.0066 14.6213C23.9456 14.5653 24.7931 13.8702 24.8648 12.8776L23.3687 12.7695C23.359 12.9038 23.2186 13.106 22.9172 13.124L23.0066 14.6213ZM24.8648 12.8774C24.8699 12.807 24.8694 12.7303 24.8694 12.6563H23.3694C23.3694 12.7016 23.3694 12.7288 23.3691 12.7493C23.3689 12.7689 23.3685 12.7724 23.3687 12.7698L24.8648 12.8774ZM24.8694 12.6563V8.34371H23.3694V12.6563H24.8694ZM24.8694 8.34371C24.8694 8.26978 24.8699 8.19298 24.8648 8.12257L23.3687 8.23028C23.3685 8.22757 23.3689 8.23109 23.3691 8.25065C23.3694 8.27121 23.3694 8.29838 23.3694 8.34371H24.8694ZM24.8648 8.12237C24.7931 7.12996 23.9457 6.43465 23.0065 6.37873L22.9173 7.87608C23.2186 7.89401 23.359 8.09618 23.3687 8.23048L24.8648 8.12237ZM23.0064 6.37873C22.9381 6.37467 22.8628 6.375 22.7777 6.375V7.875C22.8844 7.875 22.9048 7.87533 22.9174 7.87608L23.0064 6.37873ZM23.6785 7.09321C23.5886 4.97536 23.3015 3.4117 22.1465 2.28188L21.0976 3.35415C21.8015 4.04273 22.0909 5.06196 22.1798 7.15679L23.6785 7.09321ZM22.1465 2.28191C21.3097 1.46326 20.2475 1.09646 18.9146 0.921156C17.6017 0.748474 15.9171 0.75 13.7694 0.75V2.25C15.9586 2.25 17.5267 2.25153 18.719 2.40835C19.8915 2.56255 20.5871 2.85476 21.0976 3.35413L22.1465 2.28191ZM13.7694 0.75H10.3194V2.25H13.7694V0.75ZM10.3194 0.75C8.17168 0.75 6.48707 0.748474 5.17413 0.921156C3.84129 1.09646 2.77905 1.46326 1.94222 2.28189L2.99116 3.35414C3.50165 2.85476 4.1973 2.56255 5.36973 2.40835C6.56209 2.25153 8.13017 2.25 10.3194 2.25V0.75ZM1.94222 2.28189C1.1031 3.10277 0.725045 4.14853 0.544782 5.46016C0.367722 6.74849 0.369385 8.40034 0.369385 10.5H1.86938C1.86938 8.35702 1.87105 6.82688 2.03081 5.66439C2.18738 4.5252 2.48297 3.85129 2.99116 3.35414L1.94222 2.28189ZM0.369385 10.5C0.369385 12.5996 0.367722 14.2515 0.544782 15.5398C0.725043 16.8515 1.1031 17.8972 1.94224 18.7181L2.99114 17.6458C2.48298 17.1487 2.18738 16.4748 2.03081 15.3356C1.87105 14.1731 1.86938 12.643 1.86938 10.5H0.369385ZM1.94222 18.7181C2.77904 19.5367 3.84128 19.9035 5.17413 20.0788C6.48707 20.2515 8.17168 20.25 10.3194 20.25V18.75C8.13017 18.75 6.56209 18.7485 5.36974 18.5916C4.1973 18.4374 3.50166 18.1452 2.99117 17.6458L1.94222 18.7181ZM10.3194 20.25H13.7694V18.75H10.3194V20.25ZM13.7694 20.25C15.9171 20.25 17.6017 20.2515 18.9146 20.0788C20.2475 19.9035 21.3097 19.5367 22.1465 18.7181L21.0976 17.6458C20.5871 18.1452 19.8915 18.4374 18.719 18.5916C17.5267 18.7485 15.9586 18.75 13.7694 18.75V20.25ZM22.1465 18.7181C23.3015 17.5884 23.5886 16.0246 23.6785 13.9068L22.1798 13.8432C22.0909 15.9381 21.8015 16.9573 21.0976 17.6458L22.1465 18.7181ZM19.5093 11.25H19.5196V9.75H19.5093V11.25Z" fill="#F5F5F5"/>
</svg>
