<svg width="29" height="21" viewBox="0 0 29 21" fill="none" xmlns="http://www.w3.org/2000/svg">
<path d="M20.5398 7.5L24.405 5.18088C25.5946 4.46705 26.1895 4.11014 26.679 4.15577C27.1057 4.19555 27.4951 4.416 27.7488 4.76149C28.0398 5.15772 28.0398 5.85143 28.0398 7.23885V13.7612C28.0398 15.1485 28.0398 15.8422 27.7488 16.2386C27.4951 16.584 27.1057 16.8045 26.679 16.8443C26.1895 16.8899 25.5946 16.533 24.405 15.8192L20.5398 13.5M5.83979 19.5H15.7398C17.4199 19.5 18.2601 19.5 18.9018 19.173C19.4662 18.8855 19.9252 18.4265 20.2128 17.862C20.5398 17.2203 20.5398 16.3802 20.5398 14.7V6.3C20.5398 4.61985 20.5398 3.77976 20.2128 3.13803C19.9252 2.57354 19.4662 2.11459 18.9018 1.82698C18.2601 1.5 17.4199 1.5 15.7398 1.5H5.83979C4.15964 1.5 3.31956 1.5 2.67783 1.82698C2.11333 2.11459 1.65439 2.57354 1.36678 3.13803C1.03979 3.77976 1.03979 4.61983 1.03979 6.3V14.7C1.03979 16.3802 1.03979 17.2203 1.36678 17.862C1.65439 18.4265 2.11333 18.8855 2.67783 19.173C3.31956 19.5 4.15963 19.5 5.83979 19.5Z" stroke="#22282B" stroke-width="1.5" stroke-linecap="round" stroke-linejoin="round"/>
</svg>
