<svg width="27" height="27" viewBox="0 0 27 27" fill="none" xmlns="http://www.w3.org/2000/svg">
<path d="M14.3691 7.25C14.3691 6.83579 14.0334 6.5 13.6191 6.5C13.2049 6.5 12.8691 6.83579 12.8691 7.25H14.3691ZM13.6191 16L13.0888 16.5303C13.3817 16.8232 13.8566 16.8232 14.1495 16.5303L13.6191 16ZM17.8995 12.7803C18.1924 12.4874 18.1924 12.0126 17.8995 11.7197C17.6066 11.4268 17.1317 11.4268 16.8388 11.7197L17.8995 12.7803ZM10.3995 11.7197C10.1066 11.4268 9.6317 11.4268 9.33881 11.7197C9.04592 12.0126 9.04592 12.4874 9.33881 12.7803L10.3995 11.7197ZM18.6191 20.5C19.0334 20.5 19.3691 20.1642 19.3691 19.75C19.3691 19.3358 19.0334 19 18.6191 19V20.5ZM8.61914 19C8.20493 19 7.86914 19.3358 7.86914 19.75C7.86914 20.1642 8.20493 20.5 8.61914 20.5V19ZM2.94973 2.83059L3.48006 3.36092L3.48006 3.36092L2.94973 2.83059ZM24.2885 2.83059L23.7582 3.3609L23.7582 3.36092L24.2885 2.83059ZM24.2885 24.1694L23.7582 23.639L23.7582 23.6391L24.2885 24.1694ZM2.94973 24.1694L3.48007 23.6391L3.48005 23.639L2.94973 24.1694ZM12.8691 7.25V16H14.3691V7.25H12.8691ZM14.1495 16.5303L17.8995 12.7803L16.8388 11.7197L13.0888 15.4697L14.1495 16.5303ZM14.1495 15.4697L10.3995 11.7197L9.33881 12.7803L13.0888 16.5303L14.1495 15.4697ZM1.86914 13.5C1.86914 10.5325 1.87073 8.38235 2.09128 6.74198C2.30892 5.12319 2.72734 4.11363 3.48006 3.36092L2.4194 2.30026C1.34153 3.37812 0.844657 4.75698 0.604652 6.54211C0.367548 8.30566 0.369141 10.5749 0.369141 13.5H1.86914ZM3.48006 3.36092C4.23277 2.6082 5.24233 2.18978 6.86112 1.97214C8.50149 1.75159 10.6517 1.75 13.6191 1.75V0.25C10.6941 0.25 8.42481 0.248407 6.66125 0.485511C4.87613 0.725516 3.49726 1.22239 2.4194 2.30026L3.48006 3.36092ZM13.6191 1.75C16.5866 1.75 18.7368 1.75159 20.3771 1.97214C21.9959 2.18978 23.0055 2.6082 23.7582 3.3609L24.8189 2.30027C23.741 1.22239 22.3621 0.725515 20.577 0.485511C18.8135 0.248407 16.5442 0.25 13.6191 0.25V1.75ZM23.7582 3.36092C24.5109 4.11364 24.9294 5.1232 25.147 6.74199C25.3675 8.38235 25.3691 10.5325 25.3691 13.5H26.8691C26.8691 10.5749 26.8707 8.30566 26.6336 6.54211C26.3936 4.75698 25.8967 3.37811 24.8188 2.30025L23.7582 3.36092ZM25.3691 13.5C25.3691 16.4675 25.3675 18.6176 25.147 20.258C24.9294 21.8768 24.5109 22.8864 23.7582 23.639L24.8188 24.6997C25.8967 23.6219 26.3936 22.243 26.6336 20.4579C26.8707 18.6943 26.8691 16.425 26.8691 13.5H25.3691ZM23.7582 23.6391C23.0055 24.3918 21.9959 24.8102 20.3771 25.0279C18.7368 25.2484 16.5866 25.25 13.6191 25.25V26.75C16.5442 26.75 18.8135 26.7516 20.577 26.5145C22.3621 26.2745 23.741 25.7776 24.8189 24.6997L23.7582 23.6391ZM13.6191 25.25C10.6517 25.25 8.5015 25.2484 6.86113 25.0279C5.24234 24.8102 4.23278 24.3918 3.48007 23.6391L2.41939 24.6997C3.49725 25.7776 4.87612 26.2745 6.66125 26.5145C8.4248 26.7516 10.6941 26.75 13.6191 26.75V25.25ZM3.48005 23.639C2.72734 22.8864 2.30892 21.8768 2.09128 20.258C1.87073 18.6176 1.86914 16.4675 1.86914 13.5H0.369141C0.369141 16.425 0.367548 18.6943 0.604652 20.4579C0.844656 22.243 1.34153 23.6219 2.41941 24.6997L3.48005 23.639ZM18.6191 19H8.61914V20.5H18.6191V19Z" fill="white"/>
</svg>
