<svg width="286" height="68" viewBox="0 0 286 68" fill="none" xmlns="http://www.w3.org/2000/svg">
<path d="M105.824 16.2405C96.316 16.2405 90.8734 23.1258 90.8734 33.4865C90.8734 44.175 97.0373 50.0111 105.89 50.0111C114.218 50.0111 119.267 45.4209 119.267 37.7488V37.5521H104.775V30.1422H127.07V57.0931H119.988L119.464 51.5849C116.841 55.2571 111.398 57.8144 104.906 57.8144C91.4635 57.8144 82.0864 48.0439 82.0864 33.2897C82.0864 18.7323 91.5947 8.37158 106.021 8.37158C116.972 8.37158 125.431 14.7323 126.808 24.5028H117.955C116.447 18.8634 111.595 16.2405 105.824 16.2405Z" fill="#050505"/>
<path d="M141.249 9.15847V57.0931H132.856V9.15847H141.249Z" fill="#050505"/>
<path d="M174.826 37.4865H156.989V57.0931H148.596V9.15847H178.235V16.8962H156.989V29.9455H174.826V37.4865Z" fill="#050505"/>
<path d="M194.064 38.2078L177.867 9.15847H187.244L196.687 26.6012C197.408 27.9127 197.867 28.9618 198.392 30.1422C198.982 28.9618 199.244 28.175 200.097 26.6012L209.474 9.15847H218.589L202.457 38.2078V57.0931H194.064V38.2078Z" fill="#050505"/>
<path d="M239.779 57.0931H231.058L248.37 9.15847H256.96L274.271 57.0931H265.419L261.55 46.0111H243.648L239.779 57.0931ZM251.583 23.4536L246.14 38.9291H259.124L253.615 23.4536C253.222 22.2077 252.763 20.7651 252.632 19.7815C252.435 20.6995 252.042 22.1421 251.583 23.4536Z" fill="#050505"/>
<path d="M285.397 9.15847V57.0931H277.003V9.15847H285.397Z" fill="#050505"/>
<path d="M61.0909 68H5.45455C2.44655 68 0 65.5535 0 62.5455V5.45455C0 2.44655 2.44655 0 5.45455 0H61.0909C64.0989 0 66.5455 2.44655 66.5455 5.45455V62.5455C66.5455 65.5535 64.0989 68 61.0909 68ZM5.45455 5.09091C5.25455 5.09091 5.09091 5.25455 5.09091 5.45455V62.5455C5.09091 62.7455 5.25455 62.9091 5.45455 62.9091H61.0909C61.2909 62.9091 61.4545 62.7455 61.4545 62.5455V5.45455C61.4545 5.25455 61.2909 5.09091 61.0909 5.09091H5.45455Z" fill="#050505"/>
<path d="M64.0182 47.2994L49.4909 46.5664C49.8865 38.7271 43.8291 32.0267 35.9884 31.6303C32.1949 31.4463 28.5462 32.738 25.7243 35.2871C22.9033 37.8376 21.2451 41.3336 21.0531 45.1307C21.0364 45.474 21.0306 45.8071 21.0371 46.1118L6.49454 46.4231C6.48145 45.7773 6.4909 45.0995 6.52508 44.4071C6.91272 36.7213 10.2669 29.6529 15.9702 24.4973C21.6742 19.3424 29.0415 16.7198 36.7215 17.1038C52.5738 17.9045 64.8182 31.45 64.0182 47.2994Z" fill="#050505"/>
<path d="M22.2881 61.3893C21.8001 61.3893 21.3128 61.3769 20.8204 61.3522L21.5535 46.8249C29.4095 47.2169 36.0939 41.1638 36.4895 33.3224C36.6815 29.5245 35.3819 25.8794 32.8328 23.0584C30.2823 20.2365 26.787 18.5783 22.9892 18.3863C22.6379 18.3696 22.315 18.3653 22.019 18.3711L21.6866 3.82999C22.3288 3.81399 22.987 3.82488 23.7033 3.85907C31.3993 4.2467 38.4677 7.60161 43.6233 13.3042C48.7783 19.0082 51.4044 26.3783 51.0168 34.0562C50.2408 49.4154 37.4968 61.3878 22.2881 61.3893Z" fill="#050505"/>
</svg>
