<svg width="19" height="17" viewBox="0 0 19 17" fill="none" xmlns="http://www.w3.org/2000/svg">
<path fill-rule="evenodd" clip-rule="evenodd" d="M17.0319 0.609461C17.2655 0.512539 17.5212 0.479111 17.7724 0.512657C18.0236 0.546202 18.261 0.645494 18.46 0.800199C18.659 0.954903 18.8124 1.15936 18.904 1.3923C18.9957 1.62524 19.0223 1.87813 18.9812 2.12466L16.8372 14.9443C16.6292 16.1808 15.2528 16.89 14.1023 16.274C13.14 15.7587 11.7107 14.9648 10.425 14.1363C9.78218 13.7217 7.81306 12.3938 8.05506 11.4488C8.26303 10.6409 11.5717 7.60493 13.4624 5.79992C14.2044 5.09077 13.866 4.68169 12.9897 5.33399C10.8135 6.95356 7.31959 9.41646 6.1644 10.1098C5.14533 10.7211 4.61405 10.8254 3.97879 10.7211C2.81982 10.531 1.74498 10.2365 0.867708 9.87773C-0.317737 9.39317 -0.260072 7.78664 0.866763 7.31885L17.0319 0.609461Z" fill="#667085"/>
</svg>
