<svg width="173" height="172" viewBox="0 0 173 172" fill="none" xmlns="http://www.w3.org/2000/svg">
<path d="M143.833 21.5C151.75 21.5 158.167 27.9172 158.167 35.8333V136.167C158.167 144.083 151.75 150.5 143.833 150.5H29.1667C21.2506 150.5 14.8333 144.083 14.8333 136.167V35.8333C14.8333 27.9172 21.2506 21.5 29.1667 21.5H143.833ZM143.833 35.8333H29.1667V108.22L64.9627 72.4242C68.4612 68.9259 74.1332 68.9259 77.632 72.4242L106.77 101.563L115.639 92.6951C119.137 89.1963 124.809 89.1963 128.307 92.6951L143.833 108.22V35.8333ZM111.583 50.1667C117.52 50.1667 122.333 54.9796 122.333 60.9167C122.333 66.8537 117.52 71.6667 111.583 71.6667C105.646 71.6667 100.833 66.8537 100.833 60.9167C100.833 54.9796 105.646 50.1667 111.583 50.1667Z" fill="#050505" fill-opacity="0.3"/>
</svg>
