<svg xmlns="http://www.w3.org/2000/svg" fill="none" viewBox="0 1177.47 363.63120567375887 160.2" style="max-height: 500px" width="363.63120567375887" height="160.2">
<path stroke-width="3" stroke="black" d="M391 1.5H658C709.915 1.5 752 43.5852 752 95.5V201.25M344.5 401H95.5C43.5852 401 1.5 443.085 1.5 495V538.5M405 781H646C697.915 781 740 823.085 740 875V963M344.5 1186H95.5C43.5852 1186 1.5 1228.09 1.5 1280V1335"/>
<path stroke-width="3" stroke="url(#paint0_linear_15_1456)" d="M391 1.5H658C709.915 1.5 752 43.5852 752 95.5V201.25M344.5 401H95.5C43.5852 401 1.5 443.085 1.5 495V538.5M405 781H646C697.915 781 740 823.085 740 875V963M344.5 1186H95.5C43.5852 1186 1.5 1228.09 1.5 1280V1335"/>
<defs>
<linearGradient gradientUnits="userSpaceOnUse" y2="874.52" x2="709.541" y1="848.5" x1="1.5" id="paint0_linear_15_1456">
<stop stop-color="#2A61E8"/>
<stop stop-color="#5B4DE8" offset="0.36"/>
<stop stop-color="#FF4D68" offset="0.98"/>
</linearGradient>
</defs>
</svg>