<svg width="137" height="33" viewBox="0 0 137 33" fill="none" xmlns="http://www.w3.org/2000/svg">
<path d="M50.5642 7.75985C46.021 7.75985 43.4204 11.0497 43.4204 16.0002C43.4204 21.1073 46.3656 23.8959 50.5955 23.8959C54.5747 23.8959 56.9872 21.7026 56.9872 18.0368V17.9428H50.0628V14.4023H60.7158V27.2798H57.3319L57.0812 24.6479C55.8279 26.4025 53.2274 27.6244 50.1255 27.6244C43.7024 27.6244 39.2219 22.9559 39.2219 15.9062C39.2219 8.95047 43.7651 4 50.6581 4C55.8906 4 59.9325 7.03922 60.5904 11.7077H56.3606C55.64 9.01314 53.3214 7.75985 50.5642 7.75985Z" fill="#050505"/>
<path d="M67.4906 4.37599V27.2798H63.4801V4.37599H67.4906Z" fill="#050505"/>
<path d="M83.5339 17.9115H75.0115V27.2798H71.001V4.37599H85.1631V8.07317H75.0115V14.3083H83.5339V17.9115Z" fill="#050505"/>
<path d="M92.7262 18.2561L84.9871 4.37599H89.4676L93.9795 12.7103C94.3241 13.337 94.5434 13.8383 94.7941 14.4023C95.0761 13.8383 95.2014 13.4623 95.6087 12.7103L100.089 4.37599H104.444L96.7367 18.2561V27.2798H92.7262V18.2561Z" fill="#050505"/>
<path d="M114.57 27.2798H110.402L118.674 4.37599H122.779L131.05 27.2798H126.82L124.972 21.9846H116.418L114.57 27.2798ZM120.209 11.2064L117.609 18.6008H123.813L121.181 11.2064C120.993 10.6111 120.773 9.92177 120.711 9.45179C120.617 9.89044 120.429 10.5797 120.209 11.2064Z" fill="#050505"/>
<path d="M136.366 4.37599V27.2798H132.356V4.37599H136.366Z" fill="#050505"/>
<path d="M29.19 32.4912H2.60625C1.16899 32.4912 0 31.3223 0 29.885V2.60625C0 1.16899 1.16899 0 2.60625 0H29.19C30.6273 0 31.7962 1.16899 31.7962 2.60625V29.885C31.7962 31.3223 30.6273 32.4912 29.19 32.4912ZM2.60625 2.4325C2.51069 2.4325 2.4325 2.51069 2.4325 2.60625V29.885C2.4325 29.9806 2.51069 30.0588 2.60625 30.0588H29.19C29.2856 30.0588 29.3638 29.9806 29.3638 29.885V2.60625C29.3638 2.51069 29.2856 2.4325 29.19 2.4325H2.60625Z" fill="#050505"/>
<path d="M30.5887 22.6004L23.6474 22.2501C23.8364 18.5044 20.9421 15.3028 17.1957 15.1135C15.3831 15.0255 13.6397 15.6427 12.2914 16.8607C10.9435 18.0794 10.1512 19.7498 10.0594 21.5641C10.0514 21.7281 10.0487 21.8873 10.0518 22.0329L3.10316 22.1816C3.09691 21.873 3.10142 21.5492 3.11776 21.2183C3.30297 17.546 4.90564 14.1686 7.63074 11.7052C10.3562 9.24211 13.8764 7.98902 17.546 8.1725C25.1204 8.55509 30.9709 15.0273 30.5887 22.6004Z" fill="#050505"/>
<path d="M10.6495 29.3328C10.4163 29.3328 10.1835 29.3269 9.94824 29.3151L10.2985 22.3738C14.0522 22.5611 17.2461 19.6689 17.4351 15.9221C17.5269 14.1075 16.9059 12.3658 15.6879 11.0178C14.4692 9.66954 12.7991 8.87723 10.9845 8.78549C10.8166 8.7775 10.6624 8.77542 10.5209 8.7782L10.3621 1.83029C10.6689 1.82264 10.9834 1.82785 11.3257 1.84418C15.003 2.0294 18.3803 3.63241 20.8438 6.35716C23.3068 9.0826 24.5617 12.6042 24.3764 16.2727C24.0057 23.6116 17.9164 29.3321 10.6495 29.3328Z" fill="#050505"/>
</svg>
