<svg width="18" height="23" viewBox="0 0 18 23" fill="none" xmlns="http://www.w3.org/2000/svg">
<path d="M1.81343 9.20579L5.06695 4.64846C7.16998 1.7026 8.22154 0.229678 9.20265 0.540934C10.1837 0.8522 10.1837 2.65874 10.1837 6.27183V6.6125C10.1837 7.91566 10.1837 8.56724 10.5859 8.97594L10.6072 8.99712C11.018 9.39723 11.6731 9.39723 12.9831 9.39723C15.3407 9.39723 16.5196 9.39723 16.9179 10.1374C16.9245 10.1496 16.9308 10.1621 16.9371 10.1745C17.3132 10.9262 16.6307 11.8822 15.2656 13.7943L12.0121 18.3516C9.909 21.2973 8.85745 22.7704 7.87633 22.4591C6.89533 22.1478 6.89533 20.3412 6.89533 16.7281L6.89543 16.3876C6.89543 15.0843 6.89544 14.4328 6.49317 14.024L6.47192 14.0029C6.06105 13.6029 5.40601 13.6029 4.09591 13.6029C1.73836 13.6029 0.559594 13.6029 0.16121 12.8626C0.154612 12.8504 0.148194 12.838 0.141968 12.8255C-0.234104 12.0739 0.448403 11.1179 1.81343 9.20579Z" fill="white"/>
</svg>
