<svg width="31" height="31" viewBox="0 0 31 31" fill="none" xmlns="http://www.w3.org/2000/svg">
<path d="M13.8143 6.22626C14.2713 4.81976 16.2611 4.81976 16.7181 6.22626L18.3509 11.2516C18.5553 11.8806 19.1415 12.3065 19.8028 12.3065H25.0868C26.5657 12.3065 27.1806 14.1989 25.9841 15.0682L21.7093 18.174C21.1742 18.5628 20.9504 19.2518 21.1547 19.8808L22.7876 24.9062C23.2446 26.3127 21.6348 27.4823 20.4383 26.613L16.1635 23.5072C15.6284 23.1184 14.9039 23.1184 14.3689 23.5072L10.094 26.613C8.8976 27.4823 7.2878 26.3127 7.7448 24.9062L9.37763 19.8808C9.58201 19.2518 9.35812 18.5628 8.82305 18.174L4.54824 15.0682C3.3518 14.1989 3.96669 12.3065 5.44557 12.3065H10.7295C11.3909 12.3065 11.9771 11.8806 12.1814 11.2516L13.8143 6.22626Z" fill="url(#paint0_linear_15_1356)"/>
<defs>
<linearGradient id="paint0_linear_15_1356" x1="-2" y1="16" x2="24.4195" y2="26.9115" gradientUnits="userSpaceOnUse">
<stop stop-color="#2A61E8"/>
<stop offset="0.36" stop-color="#5B4DE8"/>
<stop offset="0.98" stop-color="#FF4D68"/>
</linearGradient>
</defs>
</svg>
