<svg width="24" height="27" viewBox="0 0 24 27" fill="none" xmlns="http://www.w3.org/2000/svg">
<path d="M5.22902 3.10103C7.65607 0.816702 10.5587 0.245621 11.7867 0.245621C13.0146 0.245621 16.0773 0.816702 18.5044 3.10103C19.01 2.89707 20.1513 2.32599 20.6714 1.67332C20.0935 3.16901 17.8109 6.6091 13.3036 8.40392C13.1961 8.18954 12.7422 7.76077 11.7867 7.76077C10.8311 7.76077 10.5373 8.18954 10.4298 8.40392C5.92247 6.6091 3.63988 3.16901 3.06201 1.67332C3.5821 2.32599 4.72339 2.89707 5.22902 3.10103Z" fill="#667085"/>
<path d="M6.63776 7.82429C7.32132 8.30937 8.85985 9.33648 9.54544 9.56426C8.24006 9.94916 5.83098 10.14 6.63776 7.82429Z" fill="#667085"/>
<path d="M3.91532 5.08781C4.23464 5.53598 4.98083 6.50825 5.41107 6.81195C4.72195 8.32519 4.34202 11.3517 8.33515 11.3517L8.23432 12.6646L5.27644 14.2463C6.66782 14.6435 9.69599 16.4563 10.6777 20.53L11.8556 24.3623L13.0548 20.53C14.0364 16.4563 17.0646 14.6435 18.456 14.2463L15.4981 12.6646L15.3973 11.3517C19.3904 11.3517 19.0105 8.32519 18.3214 6.81195C18.7516 6.50825 19.4978 5.53598 19.8171 5.08781C21.0583 6.25605 21.1932 8.55888 21.1055 9.56426C21.1055 17.1538 22.6126 20.6993 23.3662 21.5234L20.1736 19.2276L18.012 22.5873L15.4981 20.53L11.8556 26.2456L8.23432 20.53L5.72037 22.5873L3.55878 19.2276L0.366211 21.5234C1.11978 20.6993 2.62693 17.1538 2.62693 9.56426C2.53921 8.55888 2.67409 6.25605 3.91532 5.08781Z" fill="#667085"/>
<path d="M17.0947 7.82429C16.4111 8.30937 14.8726 9.33648 14.187 9.56426C15.4924 9.94916 17.9014 10.14 17.0947 7.82429Z" fill="#667085"/>
<path d="M9.92119 11.7453C9.92119 10.245 11.2763 9.50647 11.9559 9.32475C12.6355 9.50647 13.9947 10.245 13.9947 11.7453V13.3808L15.5238 14.2749C14.3345 14.9728 11.96 17.0531 11.96 19.7921C11.96 17.0531 9.58132 14.9728 8.39201 14.2749L9.92119 13.3808V11.7453Z" fill="#667085"/>
</svg>
