<svg width="24" height="21" viewBox="0 0 24 21" fill="none" xmlns="http://www.w3.org/2000/svg">
<path fill-rule="evenodd" clip-rule="evenodd" d="M20.9838 0.382447C21.2666 0.261295 21.5761 0.21951 21.8802 0.261442C22.1842 0.303373 22.4716 0.427489 22.7126 0.620869C22.9535 0.81425 23.1391 1.06983 23.25 1.361C23.361 1.65217 23.3932 1.96829 23.3434 2.27645L20.7481 18.3009C20.4963 19.8467 18.8301 20.7331 17.4375 19.9631C16.2725 19.319 14.5423 18.3266 12.986 17.291C12.2078 16.7727 9.82412 15.1128 10.1171 13.9317C10.3688 12.9218 14.374 9.12678 16.6627 6.87052C17.5611 5.98409 17.1514 5.47273 16.0906 6.28811C13.4563 8.31257 9.22677 11.3912 7.82838 12.2578C6.59477 13.022 5.95164 13.1524 5.18264 13.022C3.77967 12.7843 2.47855 12.4162 1.41659 11.9678C-0.0184183 11.3621 0.051387 9.35392 1.41545 8.76918L20.9838 0.382447Z" fill="#667085"/>
</svg>
