<svg width="22" height="23" viewBox="0 0 22 23" fill="none" xmlns="http://www.w3.org/2000/svg">
<path fill-rule="evenodd" clip-rule="evenodd" d="M8.17562 1.48962C6.73712 2.17233 5.56023 2.75004 5.56048 2.77354C5.56112 2.83418 9.01292 4.42686 9.13544 4.42298C9.19117 4.42128 9.59546 4.25172 10.0338 4.04624L10.831 3.67269L12.5721 4.48817L13.9977 3.90452C16.1459 3.02505 16.369 2.92868 16.334 2.8963C16.2876 2.85334 15.5171 2.47622 13.4267 1.47353C12.4164 0.988923 11.4358 0.513778 11.2476 0.417633C11.0594 0.321488 10.8797 0.244145 10.8483 0.245642C10.8169 0.247139 9.61415 0.806934 8.17562 1.48962ZM1.86637 4.46624L0.368913 5.17095L0.368913 8.26379C0.368913 9.96487 0.388576 11.3566 0.412695 11.3566C0.436731 11.3566 1.17349 11.0656 2.04989 10.71L3.64335 10.0634L3.64335 6.80334L4.42202 7.18985C5.02206 7.48742 5.62245 7.78438 6.22321 8.08074L7.24569 8.58512L7.70067 8.39767C7.98602 8.27993 8.27079 8.16104 8.55499 8.041C8.7746 7.94783 9.31369 7.72661 9.75293 7.54931C10.1922 7.37194 10.5988 7.19358 10.6564 7.15293C10.733 7.09894 9.79911 6.62874 7.20216 5.41374C5.24462 4.49789 3.58019 3.75146 3.50343 3.75504C3.42667 3.75861 2.69 4.07862 1.86637 4.46624ZM16.6039 4.66414C15.5841 5.08361 14.7489 5.44358 14.748 5.46411C14.7471 5.48461 15.3029 5.78574 15.9833 6.13317C16.6636 6.48068 17.2202 6.78358 17.2202 6.80639C17.2202 6.82915 16.6182 7.0949 15.8825 7.39706C15.1467 7.69915 13.2869 8.46436 11.7495 9.09754L6.59831 11.2189C5.30252 11.7526 4.13451 12.2336 4.00275 12.288C1.35602 13.3796 0.628544 13.6825 0.528641 13.7345C0.42818 13.7869 0.405426 14.091 0.387545 15.6174L0.366211 17.4378L3.04438 18.6811L4.90121 17.9176C5.92249 17.4977 6.75804 17.1322 6.75804 17.1053C6.75804 17.0784 6.56932 16.9664 6.33876 16.8562C6.1081 16.746 5.63195 16.5021 5.28055 16.3141C4.92917 16.126 4.5788 15.9535 4.50187 15.9306C4.42498 15.9078 4.36317 15.8679 4.36443 15.8419C4.36571 15.8159 5.18337 15.4621 6.18135 15.0555C8.11972 14.2659 9.60312 13.6573 12.7878 12.3452C14.2118 11.7586 15.6361 11.1724 17.0605 10.5865C18.3124 10.0717 19.7679 9.47042 20.295 9.25037L21.2534 8.85028L21.2961 5.16791L19.9379 4.53278C19.1909 4.18349 18.5524 3.89856 18.5189 3.8996C18.4854 3.90056 17.6237 4.24457 16.6039 4.66414ZM20.8895 11.3066C20.6893 11.3956 20.294 11.5624 20.011 11.6771C19.728 11.7918 19.1909 12.0126 18.8175 12.1678L18.1386 12.4499L18.1232 14.0664C18.1146 14.9554 18.0787 15.6788 18.0433 15.6741C17.963 15.6632 16.6907 15.0687 15.4117 14.4444C14.4886 13.9938 14.4306 13.9759 14.2137 14.0737C14.0883 14.1304 13.3388 14.4366 12.5482 14.7544C11.7575 15.0722 11.0848 15.3529 11.0532 15.3784C11.0217 15.4037 12.6129 16.1895 14.5895 17.1246L18.1832 18.8248L19.7183 18.1013C20.5625 17.7034 21.2804 17.3405 21.3135 17.2949C21.3879 17.1922 21.3815 11.1305 21.307 11.1387C21.2776 11.142 21.0896 11.2175 20.8895 11.3066ZM12.3885 18.4215C12.1222 18.5258 11.856 18.6302 11.5898 18.7348C10.7861 19.0516 10.9436 19.0621 9.9875 18.6284C9.35068 18.3396 9.07617 18.2505 8.95702 18.2938C8.86765 18.3262 8.09847 18.6415 7.24761 18.9944C6.3968 19.3473 5.67116 19.636 5.63507 19.636C5.2781 19.636 5.87155 19.959 8.16158 21.0115L10.8472 22.2456L11.9772 21.7374C12.5987 21.4578 13.8523 20.898 14.763 20.4934C15.6736 20.0887 16.4074 19.747 16.3936 19.7341C16.3798 19.7213 15.6168 19.3643 14.698 18.9409L13.0274 18.1711L12.3885 18.4215Z" fill="#667085"/>
</svg>
