<svg width="23" height="21" viewBox="0 0 23 21" fill="none" xmlns="http://www.w3.org/2000/svg">
<path d="M20.8992 0.939453H1.77808C1.31706 0.939453 0.874917 1.12259 0.548926 1.44858C0.222935 1.77457 0.0397949 2.21671 0.0397949 2.67773V18.3223C0.0397949 18.7833 0.222935 19.2254 0.548926 19.5514C0.874917 19.8774 1.31706 20.0605 1.77808 20.0605H20.8992C21.3602 20.0605 21.8023 19.8774 22.1283 19.5514C22.4543 19.2254 22.6375 18.7833 22.6375 18.3223V2.67773C22.6375 2.21671 22.4543 1.77457 22.1283 1.44858C21.8023 1.12259 21.3602 0.939453 20.8992 0.939453ZM20.8992 2.67773V13.8408L18.0669 11.0095C17.9054 10.8481 17.7138 10.72 17.5029 10.6326C17.2919 10.5452 17.0659 10.5003 16.8376 10.5003C16.6093 10.5003 16.3832 10.5452 16.1723 10.6326C15.9613 10.72 15.7697 10.8481 15.6083 11.0095L13.4354 13.1824L8.65515 8.40211C8.32919 8.07637 7.88723 7.89338 7.4264 7.89338C6.96558 7.89338 6.52361 8.07637 6.19766 8.40211L1.77808 12.8217V2.67773H20.8992ZM1.77808 15.2803L7.42749 9.63086L16.1189 18.3223H1.77808V15.2803ZM20.8992 18.3223H18.5775L14.6663 14.4111L16.8392 12.2383L20.8992 16.2993V18.3223ZM13.0769 7.45801C13.0769 7.20016 13.1534 6.9481 13.2966 6.73371C13.4399 6.51931 13.6435 6.35221 13.8817 6.25354C14.1199 6.15486 14.3821 6.12904 14.635 6.17935C14.8879 6.22965 15.1202 6.35382 15.3025 6.53614C15.4848 6.71847 15.609 6.95077 15.6593 7.20367C15.7096 7.45656 15.6838 7.71869 15.5851 7.95692C15.4864 8.19514 15.3193 8.39875 15.1049 8.542C14.8905 8.68526 14.6385 8.76172 14.3806 8.76172C14.0348 8.76172 13.7032 8.62436 13.4588 8.37987C13.2143 8.13538 13.0769 7.80377 13.0769 7.45801Z" fill="#050505"/>
</svg>
